<svg id="visual" viewBox="0 0 900 900" width="900" height="900" xmlns="http://www.w3.org/2000/svg" xmlns:xlink="http://www.w3.org/1999/xlink" version="1.1">
  <path d="M0 324L75 320.3C150 316.7 300 309.3 450 308C600 306.7 750 311.3 825 313.7L900 316L900 0L825 0C750 0 600 0 450 0C300 0 150 0 75 0L0 0Z" fill="#c62368"></path>
  <path d="M0 248L75 250.5C150 253 300 258 450 259.5C600 261 750 259 825 258L900 257L900 0L825 0C750 0 600 0 450 0C300 0 150 0 75 0L0 0Z" fill="#dd3c5d"></path>
  <path d="M0 224L75 226.7C150 229.3 300 234.7 450 235.3C600 236 750 232 825 230L900 228L900 0L825 0C750 0 600 0 450 0C300 0 150 0 75 0L0 0Z" fill="#ed5852"></path>
  <path d="M0 173L75 173.3C150 173.7 300 174.3 450 174.3C600 174.3 750 173.7 825 173.3L900 173L900 0L825 0C750 0 600 0 450 0C300 0 150 0 75 0L0 0Z" fill="#f87447"></path>
  <path d="M0 147L75 143C150 139 300 131 450 128.3C600 125.7 750 128.3 825 129.7L900 131L900 0L825 0C750 0 600 0 450 0C300 0 150 0 75 0L0 0Z" fill="#fc923f"></path>
  <path d="M0 83L75 84.8C150 86.7 300 90.3 450 91.5C600 92.7 750 91.3 825 90.7L900 90L900 0L825 0C750 0 600 0 450 0C300 0 150 0 75 0L0 0Z" fill="#fcaf3c"></path>
</svg>