<svg
  xmlns="http://www.w3.org/2000/svg"
  id="visual"
  viewBox="0 0 900 600"
  width="900"
  height="600"
  version="1.1"
>
  <path
    d="M0 235L50 235L50 193L100 193L100 85L150 85L150 127L200 127L200 217L250 217L250 139L300 139L300 115L350 115L350 211L400 211L400 121L450 121L450 223L500 223L500 217L550 217L550 85L600 85L600 211L650 211L650 103L700 103L700 127L750 127L750 145L800 145L800 151L850 151L850 205L900 205L900 127L900 0L900 0L850 0L850 0L800 0L800 0L750 0L750 0L700 0L700 0L650 0L650 0L600 0L600 0L550 0L550 0L500 0L500 0L450 0L450 0L400 0L400 0L350 0L350 0L300 0L300 0L250 0L250 0L200 0L200 0L150 0L150 0L100 0L100 0L50 0L50 0L0 0Z" fill="#fcaf3c"/><path d="M0 289L50 289L50 259L100 259L100 97L150 97L150 175L200 175L200 247L250 247L250 169L300 169L300 133L350 133L350 265L400 265L400 181L450 181L450 283L500 283L500 235L550 235L550 151L600 151L600 229L650 229L650 169L700 169L700 187L750 187L750 169L800 169L800 205L850 205L850 217L900 217L900 181L900 125L900 203L850 203L850 149L800 149L800 143L750 143L750 125L700 125L700 101L650 101L650 209L600 209L600 83L550 83L550 215L500 215L500 221L450 221L450 119L400 119L400 209L350 209L350 113L300 113L300 137L250 137L250 215L200 215L200 125L150 125L150 83L100 83L100 191L50 191L50 233L0 233Z" fill="#fb9d3d"/><path d="M0 355L50 355L50 301L100 301L100 211L150 211L150 277L200 277L200 325L250 325L250 259L300 259L300 217L350 217L350 301L400 301L400 271L450 271L450 349L500 349L500 295L550 295L550 187L600 187L600 271L650 271L650 277L700 277L700 259L750 259L750 235L800 235L800 265L850 265L850 253L900 253L900 337L900 179L900 215L850 215L850 203L800 203L800 167L750 167L750 185L700 185L700 167L650 167L650 227L600 227L600 149L550 149L550 233L500 233L500 281L450 281L450 179L400 179L400 263L350 263L350 131L300 131L300 167L250 167L250 245L200 245L200 173L150 173L150 95L100 95L100 257L50 257L50 287L0 287Z" fill="#f88c40"/><path d="M0 433L50 433L50 349L100 349L100 229L150 229L150 325L200 325L200 421L250 421L250 331L300 331L300 295L350 295L350 325L400 325L400 313L450 313L450 391L500 391L500 349L550 349L550 265L600 265L600 343L650 343L650 349L700 349L700 277L750 277L750 295L800 295L800 325L850 325L850 307L900 307L900 355L900 335L900 251L850 251L850 263L800 263L800 233L750 233L750 257L700 257L700 275L650 275L650 269L600 269L600 185L550 185L550 293L500 293L500 347L450 347L450 269L400 269L400 299L350 299L350 215L300 215L300 257L250 257L250 323L200 323L200 275L150 275L150 209L100 209L100 299L50 299L50 353L0 353Z" fill="#f47b44"/><path d="M0 451L50 451L50 385L100 385L100 277L150 277L150 367L200 367L200 439L250 439L250 361L300 361L300 349L350 349L350 337L400 337L400 325L450 325L450 403L500 403L500 421L550 421L550 337L600 337L600 391L650 391L650 403L700 403L700 325L750 325L750 331L800 331L800 397L850 397L850 373L900 373L900 379L900 353L900 305L850 305L850 323L800 323L800 293L750 293L750 275L700 275L700 347L650 347L650 341L600 341L600 263L550 263L550 347L500 347L500 389L450 389L450 311L400 311L400 323L350 323L350 293L300 293L300 329L250 329L250 419L200 419L200 323L150 323L150 227L100 227L100 347L50 347L50 431L0 431Z" fill="#ed6a49"/><path d="M0 469L50 469L50 403L100 403L100 307L150 307L150 409L200 409L200 463L250 463L250 409L300 409L300 379L350 379L350 379L400 379L400 361L450 361L450 445L500 445L500 451L550 451L550 361L600 361L600 427L650 427L650 415L700 415L700 331L750 331L750 337L800 337L800 403L850 403L850 397L900 397L900 385L900 377L900 371L850 371L850 395L800 395L800 329L750 329L750 323L700 323L700 401L650 401L650 389L600 389L600 335L550 335L550 419L500 419L500 401L450 401L450 323L400 323L400 335L350 335L350 347L300 347L300 359L250 359L250 437L200 437L200 365L150 365L150 275L100 275L100 383L50 383L50 449L0 449Z" fill="#e45a4e"/><path d="M0 517L50 517L50 481L100 481L100 445L150 445L150 487L200 487L200 499L250 499L250 463L300 463L300 427L350 427L350 481L400 481L400 487L450 487L450 481L500 481L500 493L550 493L550 499L600 499L600 481L650 481L650 499L700 499L700 511L750 511L750 409L800 409L800 469L850 469L850 499L900 499L900 487L900 383L900 395L850 395L850 401L800 401L800 335L750 335L750 329L700 329L700 413L650 413L650 425L600 425L600 359L550 359L550 449L500 449L500 443L450 443L450 359L400 359L400 377L350 377L350 377L300 377L300 407L250 407L250 461L200 461L200 407L150 407L150 305L100 305L100 401L50 401L50 467L0 467Z" fill="#da4b53"/><path d="M0 535L50 535L50 535L100 535L100 517L150 517L150 517L200 517L200 523L250 523L250 535L300 535L300 505L350 505L350 523L400 523L400 535L450 535L450 517L500 517L500 547L550 547L550 553L600 553L600 529L650 529L650 553L700 553L700 535L750 535L750 493L800 493L800 541L850 541L850 535L900 535L900 535L900 485L900 497L850 497L850 467L800 467L800 407L750 407L750 509L700 509L700 497L650 497L650 479L600 479L600 497L550 497L550 491L500 491L500 479L450 479L450 485L400 485L400 479L350 479L350 425L300 425L300 461L250 461L250 497L200 497L200 485L150 485L150 443L100 443L100 479L50 479L50 515L0 515Z" fill="#ce3c57"/><path d="M0 565L50 565L50 583L100 583L100 553L150 553L150 553L200 553L200 547L250 547L250 547L300 547L300 547L350 547L350 547L400 547L400 547L450 547L450 565L500 565L500 589L550 589L550 595L600 595L600 565L650 565L650 577L700 577L700 571L750 571L750 541L800 541L800 571L850 571L850 577L900 577L900 559L900 533L900 533L850 533L850 539L800 539L800 491L750 491L750 533L700 533L700 551L650 551L650 527L600 527L600 551L550 551L550 545L500 545L500 515L450 515L450 533L400 533L400 521L350 521L350 503L300 503L300 533L250 533L250 521L200 521L200 515L150 515L150 515L100 515L100 533L50 533L50 533L0 533Z" fill="#c02f5b"/><path d="M0 601L50 601L50 601L100 601L100 601L150 601L150 601L200 601L200 601L250 601L250 601L300 601L300 601L350 601L350 601L400 601L400 601L450 601L450 601L500 601L500 601L550 601L550 601L600 601L600 601L650 601L650 601L700 601L700 601L750 601L750 601L800 601L800 601L850 601L850 601L900 601L900 601L900 557L900 575L850 575L850 569L800 569L800 539L750 539L750 569L700 569L700 575L650 575L650 563L600 563L600 593L550 593L550 587L500 587L500 563L450 563L450 545L400 545L400 545L350 545L350 545L300 545L300 545L250 545L250 545L200 545L200 551L150 551L150 551L100 551L100 581L50 581L50 563L0 563Z"
    fill="#b0235f"
  />
</svg>